%TF.GenerationSoftware,KiCad,Pcbnew,10.0.0*%
%TF.CreationDate,2026-04-11T00:48:35+10:00*%
%TF.ProjectId,555_Badge,3535355f-4261-4646-9765-2e6b69636164,rev?*%
%TF.SameCoordinates,Original*%
%TF.FileFunction,Legend,Top*%
%TF.FilePolarity,Positive*%
%FSLAX46Y46*%
G04 Gerber Fmt 4.6, Leading zero omitted, Abs format (unit mm)*
G04 Created by KiCad (PCBNEW 10.0.0) date 2026-04-11 00:48:35*
%MOMM*%
%LPD*%
G01*
G04 APERTURE LIST*
%ADD10C,0.150000*%
%ADD11C,0.120000*%
G04 APERTURE END LIST*
D10*
X47848095Y-56397200D02*
X47990952Y-56444819D01*
X47990952Y-56444819D02*
X48229047Y-56444819D01*
X48229047Y-56444819D02*
X48324285Y-56397200D01*
X48324285Y-56397200D02*
X48371904Y-56349580D01*
X48371904Y-56349580D02*
X48419523Y-56254342D01*
X48419523Y-56254342D02*
X48419523Y-56159104D01*
X48419523Y-56159104D02*
X48371904Y-56063866D01*
X48371904Y-56063866D02*
X48324285Y-56016247D01*
X48324285Y-56016247D02*
X48229047Y-55968628D01*
X48229047Y-55968628D02*
X48038571Y-55921009D01*
X48038571Y-55921009D02*
X47943333Y-55873390D01*
X47943333Y-55873390D02*
X47895714Y-55825771D01*
X47895714Y-55825771D02*
X47848095Y-55730533D01*
X47848095Y-55730533D02*
X47848095Y-55635295D01*
X47848095Y-55635295D02*
X47895714Y-55540057D01*
X47895714Y-55540057D02*
X47943333Y-55492438D01*
X47943333Y-55492438D02*
X48038571Y-55444819D01*
X48038571Y-55444819D02*
X48276666Y-55444819D01*
X48276666Y-55444819D02*
X48419523Y-55492438D01*
X49371904Y-56444819D02*
X48800476Y-56444819D01*
X49086190Y-56444819D02*
X49086190Y-55444819D01*
X49086190Y-55444819D02*
X48990952Y-55587676D01*
X48990952Y-55587676D02*
X48895714Y-55682914D01*
X48895714Y-55682914D02*
X48800476Y-55730533D01*
X47878221Y-31609580D02*
X47830602Y-31657200D01*
X47830602Y-31657200D02*
X47687745Y-31704819D01*
X47687745Y-31704819D02*
X47592507Y-31704819D01*
X47592507Y-31704819D02*
X47449650Y-31657200D01*
X47449650Y-31657200D02*
X47354412Y-31561961D01*
X47354412Y-31561961D02*
X47306793Y-31466723D01*
X47306793Y-31466723D02*
X47259174Y-31276247D01*
X47259174Y-31276247D02*
X47259174Y-31133390D01*
X47259174Y-31133390D02*
X47306793Y-30942914D01*
X47306793Y-30942914D02*
X47354412Y-30847676D01*
X47354412Y-30847676D02*
X47449650Y-30752438D01*
X47449650Y-30752438D02*
X47592507Y-30704819D01*
X47592507Y-30704819D02*
X47687745Y-30704819D01*
X47687745Y-30704819D02*
X47830602Y-30752438D01*
X47830602Y-30752438D02*
X47878221Y-30800057D01*
X48259174Y-30800057D02*
X48306793Y-30752438D01*
X48306793Y-30752438D02*
X48402031Y-30704819D01*
X48402031Y-30704819D02*
X48640126Y-30704819D01*
X48640126Y-30704819D02*
X48735364Y-30752438D01*
X48735364Y-30752438D02*
X48782983Y-30800057D01*
X48782983Y-30800057D02*
X48830602Y-30895295D01*
X48830602Y-30895295D02*
X48830602Y-30990533D01*
X48830602Y-30990533D02*
X48782983Y-31133390D01*
X48782983Y-31133390D02*
X48211555Y-31704819D01*
X48211555Y-31704819D02*
X48830602Y-31704819D01*
X53256905Y-25494819D02*
X53256905Y-24494819D01*
X53256905Y-24494819D02*
X53495000Y-24494819D01*
X53495000Y-24494819D02*
X53637857Y-24542438D01*
X53637857Y-24542438D02*
X53733095Y-24637676D01*
X53733095Y-24637676D02*
X53780714Y-24732914D01*
X53780714Y-24732914D02*
X53828333Y-24923390D01*
X53828333Y-24923390D02*
X53828333Y-25066247D01*
X53828333Y-25066247D02*
X53780714Y-25256723D01*
X53780714Y-25256723D02*
X53733095Y-25351961D01*
X53733095Y-25351961D02*
X53637857Y-25447200D01*
X53637857Y-25447200D02*
X53495000Y-25494819D01*
X53495000Y-25494819D02*
X53256905Y-25494819D01*
X54780714Y-25494819D02*
X54209286Y-25494819D01*
X54495000Y-25494819D02*
X54495000Y-24494819D01*
X54495000Y-24494819D02*
X54399762Y-24637676D01*
X54399762Y-24637676D02*
X54304524Y-24732914D01*
X54304524Y-24732914D02*
X54209286Y-24780533D01*
X70761905Y-27994819D02*
X70761905Y-26994819D01*
X70761905Y-26994819D02*
X71000000Y-26994819D01*
X71000000Y-26994819D02*
X71142857Y-27042438D01*
X71142857Y-27042438D02*
X71238095Y-27137676D01*
X71238095Y-27137676D02*
X71285714Y-27232914D01*
X71285714Y-27232914D02*
X71333333Y-27423390D01*
X71333333Y-27423390D02*
X71333333Y-27566247D01*
X71333333Y-27566247D02*
X71285714Y-27756723D01*
X71285714Y-27756723D02*
X71238095Y-27851961D01*
X71238095Y-27851961D02*
X71142857Y-27947200D01*
X71142857Y-27947200D02*
X71000000Y-27994819D01*
X71000000Y-27994819D02*
X70761905Y-27994819D01*
X71714286Y-27090057D02*
X71761905Y-27042438D01*
X71761905Y-27042438D02*
X71857143Y-26994819D01*
X71857143Y-26994819D02*
X72095238Y-26994819D01*
X72095238Y-26994819D02*
X72190476Y-27042438D01*
X72190476Y-27042438D02*
X72238095Y-27090057D01*
X72238095Y-27090057D02*
X72285714Y-27185295D01*
X72285714Y-27185295D02*
X72285714Y-27280533D01*
X72285714Y-27280533D02*
X72238095Y-27423390D01*
X72238095Y-27423390D02*
X71666667Y-27994819D01*
X71666667Y-27994819D02*
X72285714Y-27994819D01*
X57584819Y-34166666D02*
X57108628Y-34499999D01*
X57584819Y-34738094D02*
X56584819Y-34738094D01*
X56584819Y-34738094D02*
X56584819Y-34357142D01*
X56584819Y-34357142D02*
X56632438Y-34261904D01*
X56632438Y-34261904D02*
X56680057Y-34214285D01*
X56680057Y-34214285D02*
X56775295Y-34166666D01*
X56775295Y-34166666D02*
X56918152Y-34166666D01*
X56918152Y-34166666D02*
X57013390Y-34214285D01*
X57013390Y-34214285D02*
X57061009Y-34261904D01*
X57061009Y-34261904D02*
X57108628Y-34357142D01*
X57108628Y-34357142D02*
X57108628Y-34738094D01*
X56584819Y-33833332D02*
X56584819Y-33166666D01*
X56584819Y-33166666D02*
X57584819Y-33595237D01*
X68454819Y-34166666D02*
X67978628Y-34499999D01*
X68454819Y-34738094D02*
X67454819Y-34738094D01*
X67454819Y-34738094D02*
X67454819Y-34357142D01*
X67454819Y-34357142D02*
X67502438Y-34261904D01*
X67502438Y-34261904D02*
X67550057Y-34214285D01*
X67550057Y-34214285D02*
X67645295Y-34166666D01*
X67645295Y-34166666D02*
X67788152Y-34166666D01*
X67788152Y-34166666D02*
X67883390Y-34214285D01*
X67883390Y-34214285D02*
X67931009Y-34261904D01*
X67931009Y-34261904D02*
X67978628Y-34357142D01*
X67978628Y-34357142D02*
X67978628Y-34738094D01*
X67454819Y-33309523D02*
X67454819Y-33499999D01*
X67454819Y-33499999D02*
X67502438Y-33595237D01*
X67502438Y-33595237D02*
X67550057Y-33642856D01*
X67550057Y-33642856D02*
X67692914Y-33738094D01*
X67692914Y-33738094D02*
X67883390Y-33785713D01*
X67883390Y-33785713D02*
X68264342Y-33785713D01*
X68264342Y-33785713D02*
X68359580Y-33738094D01*
X68359580Y-33738094D02*
X68407200Y-33690475D01*
X68407200Y-33690475D02*
X68454819Y-33595237D01*
X68454819Y-33595237D02*
X68454819Y-33404761D01*
X68454819Y-33404761D02*
X68407200Y-33309523D01*
X68407200Y-33309523D02*
X68359580Y-33261904D01*
X68359580Y-33261904D02*
X68264342Y-33214285D01*
X68264342Y-33214285D02*
X68026247Y-33214285D01*
X68026247Y-33214285D02*
X67931009Y-33261904D01*
X67931009Y-33261904D02*
X67883390Y-33309523D01*
X67883390Y-33309523D02*
X67835771Y-33404761D01*
X67835771Y-33404761D02*
X67835771Y-33595237D01*
X67835771Y-33595237D02*
X67883390Y-33690475D01*
X67883390Y-33690475D02*
X67931009Y-33738094D01*
X67931009Y-33738094D02*
X68026247Y-33785713D01*
X62333333Y-45824819D02*
X62000000Y-45348628D01*
X61761905Y-45824819D02*
X61761905Y-44824819D01*
X61761905Y-44824819D02*
X62142857Y-44824819D01*
X62142857Y-44824819D02*
X62238095Y-44872438D01*
X62238095Y-44872438D02*
X62285714Y-44920057D01*
X62285714Y-44920057D02*
X62333333Y-45015295D01*
X62333333Y-45015295D02*
X62333333Y-45158152D01*
X62333333Y-45158152D02*
X62285714Y-45253390D01*
X62285714Y-45253390D02*
X62238095Y-45301009D01*
X62238095Y-45301009D02*
X62142857Y-45348628D01*
X62142857Y-45348628D02*
X61761905Y-45348628D01*
X63285714Y-45824819D02*
X62714286Y-45824819D01*
X63000000Y-45824819D02*
X63000000Y-44824819D01*
X63000000Y-44824819D02*
X62904762Y-44967676D01*
X62904762Y-44967676D02*
X62809524Y-45062914D01*
X62809524Y-45062914D02*
X62714286Y-45110533D01*
X39324819Y-47666666D02*
X38848628Y-47999999D01*
X39324819Y-48238094D02*
X38324819Y-48238094D01*
X38324819Y-48238094D02*
X38324819Y-47857142D01*
X38324819Y-47857142D02*
X38372438Y-47761904D01*
X38372438Y-47761904D02*
X38420057Y-47714285D01*
X38420057Y-47714285D02*
X38515295Y-47666666D01*
X38515295Y-47666666D02*
X38658152Y-47666666D01*
X38658152Y-47666666D02*
X38753390Y-47714285D01*
X38753390Y-47714285D02*
X38801009Y-47761904D01*
X38801009Y-47761904D02*
X38848628Y-47857142D01*
X38848628Y-47857142D02*
X38848628Y-48238094D01*
X38420057Y-47285713D02*
X38372438Y-47238094D01*
X38372438Y-47238094D02*
X38324819Y-47142856D01*
X38324819Y-47142856D02*
X38324819Y-46904761D01*
X38324819Y-46904761D02*
X38372438Y-46809523D01*
X38372438Y-46809523D02*
X38420057Y-46761904D01*
X38420057Y-46761904D02*
X38515295Y-46714285D01*
X38515295Y-46714285D02*
X38610533Y-46714285D01*
X38610533Y-46714285D02*
X38753390Y-46761904D01*
X38753390Y-46761904D02*
X39324819Y-47333332D01*
X39324819Y-47333332D02*
X39324819Y-46714285D01*
X51351009Y-59785714D02*
X51398628Y-59642857D01*
X51398628Y-59642857D02*
X51446247Y-59595238D01*
X51446247Y-59595238D02*
X51541485Y-59547619D01*
X51541485Y-59547619D02*
X51684342Y-59547619D01*
X51684342Y-59547619D02*
X51779580Y-59595238D01*
X51779580Y-59595238D02*
X51827200Y-59642857D01*
X51827200Y-59642857D02*
X51874819Y-59738095D01*
X51874819Y-59738095D02*
X51874819Y-60119047D01*
X51874819Y-60119047D02*
X50874819Y-60119047D01*
X50874819Y-60119047D02*
X50874819Y-59785714D01*
X50874819Y-59785714D02*
X50922438Y-59690476D01*
X50922438Y-59690476D02*
X50970057Y-59642857D01*
X50970057Y-59642857D02*
X51065295Y-59595238D01*
X51065295Y-59595238D02*
X51160533Y-59595238D01*
X51160533Y-59595238D02*
X51255771Y-59642857D01*
X51255771Y-59642857D02*
X51303390Y-59690476D01*
X51303390Y-59690476D02*
X51351009Y-59785714D01*
X51351009Y-59785714D02*
X51351009Y-60119047D01*
X50874819Y-59261904D02*
X50874819Y-58690476D01*
X51874819Y-58976190D02*
X50874819Y-58976190D01*
X51874819Y-57833333D02*
X51874819Y-58404761D01*
X51874819Y-58119047D02*
X50874819Y-58119047D01*
X50874819Y-58119047D02*
X51017676Y-58214285D01*
X51017676Y-58214285D02*
X51112914Y-58309523D01*
X51112914Y-58309523D02*
X51160533Y-58404761D01*
X41583333Y-40609580D02*
X41535714Y-40657200D01*
X41535714Y-40657200D02*
X41392857Y-40704819D01*
X41392857Y-40704819D02*
X41297619Y-40704819D01*
X41297619Y-40704819D02*
X41154762Y-40657200D01*
X41154762Y-40657200D02*
X41059524Y-40561961D01*
X41059524Y-40561961D02*
X41011905Y-40466723D01*
X41011905Y-40466723D02*
X40964286Y-40276247D01*
X40964286Y-40276247D02*
X40964286Y-40133390D01*
X40964286Y-40133390D02*
X41011905Y-39942914D01*
X41011905Y-39942914D02*
X41059524Y-39847676D01*
X41059524Y-39847676D02*
X41154762Y-39752438D01*
X41154762Y-39752438D02*
X41297619Y-39704819D01*
X41297619Y-39704819D02*
X41392857Y-39704819D01*
X41392857Y-39704819D02*
X41535714Y-39752438D01*
X41535714Y-39752438D02*
X41583333Y-39800057D01*
X42535714Y-40704819D02*
X41964286Y-40704819D01*
X42250000Y-40704819D02*
X42250000Y-39704819D01*
X42250000Y-39704819D02*
X42154762Y-39847676D01*
X42154762Y-39847676D02*
X42059524Y-39942914D01*
X42059524Y-39942914D02*
X41964286Y-39990533D01*
X36833333Y-35584819D02*
X36500000Y-35108628D01*
X36261905Y-35584819D02*
X36261905Y-34584819D01*
X36261905Y-34584819D02*
X36642857Y-34584819D01*
X36642857Y-34584819D02*
X36738095Y-34632438D01*
X36738095Y-34632438D02*
X36785714Y-34680057D01*
X36785714Y-34680057D02*
X36833333Y-34775295D01*
X36833333Y-34775295D02*
X36833333Y-34918152D01*
X36833333Y-34918152D02*
X36785714Y-35013390D01*
X36785714Y-35013390D02*
X36738095Y-35061009D01*
X36738095Y-35061009D02*
X36642857Y-35108628D01*
X36642857Y-35108628D02*
X36261905Y-35108628D01*
X37690476Y-34918152D02*
X37690476Y-35584819D01*
X37452381Y-34537200D02*
X37214286Y-35251485D01*
X37214286Y-35251485D02*
X37833333Y-35251485D01*
X36833333Y-30584819D02*
X36500000Y-30108628D01*
X36261905Y-30584819D02*
X36261905Y-29584819D01*
X36261905Y-29584819D02*
X36642857Y-29584819D01*
X36642857Y-29584819D02*
X36738095Y-29632438D01*
X36738095Y-29632438D02*
X36785714Y-29680057D01*
X36785714Y-29680057D02*
X36833333Y-29775295D01*
X36833333Y-29775295D02*
X36833333Y-29918152D01*
X36833333Y-29918152D02*
X36785714Y-30013390D01*
X36785714Y-30013390D02*
X36738095Y-30061009D01*
X36738095Y-30061009D02*
X36642857Y-30108628D01*
X36642857Y-30108628D02*
X36261905Y-30108628D01*
X37738095Y-29584819D02*
X37261905Y-29584819D01*
X37261905Y-29584819D02*
X37214286Y-30061009D01*
X37214286Y-30061009D02*
X37261905Y-30013390D01*
X37261905Y-30013390D02*
X37357143Y-29965771D01*
X37357143Y-29965771D02*
X37595238Y-29965771D01*
X37595238Y-29965771D02*
X37690476Y-30013390D01*
X37690476Y-30013390D02*
X37738095Y-30061009D01*
X37738095Y-30061009D02*
X37785714Y-30156247D01*
X37785714Y-30156247D02*
X37785714Y-30394342D01*
X37785714Y-30394342D02*
X37738095Y-30489580D01*
X37738095Y-30489580D02*
X37690476Y-30537200D01*
X37690476Y-30537200D02*
X37595238Y-30584819D01*
X37595238Y-30584819D02*
X37357143Y-30584819D01*
X37357143Y-30584819D02*
X37261905Y-30537200D01*
X37261905Y-30537200D02*
X37214286Y-30489580D01*
X49238095Y-37814819D02*
X49238095Y-38624342D01*
X49238095Y-38624342D02*
X49285714Y-38719580D01*
X49285714Y-38719580D02*
X49333333Y-38767200D01*
X49333333Y-38767200D02*
X49428571Y-38814819D01*
X49428571Y-38814819D02*
X49619047Y-38814819D01*
X49619047Y-38814819D02*
X49714285Y-38767200D01*
X49714285Y-38767200D02*
X49761904Y-38719580D01*
X49761904Y-38719580D02*
X49809523Y-38624342D01*
X49809523Y-38624342D02*
X49809523Y-37814819D01*
X50809523Y-38814819D02*
X50238095Y-38814819D01*
X50523809Y-38814819D02*
X50523809Y-37814819D01*
X50523809Y-37814819D02*
X50428571Y-37957676D01*
X50428571Y-37957676D02*
X50333333Y-38052914D01*
X50333333Y-38052914D02*
X50238095Y-38100533D01*
X40084819Y-54586666D02*
X39608628Y-54919999D01*
X40084819Y-55158094D02*
X39084819Y-55158094D01*
X39084819Y-55158094D02*
X39084819Y-54777142D01*
X39084819Y-54777142D02*
X39132438Y-54681904D01*
X39132438Y-54681904D02*
X39180057Y-54634285D01*
X39180057Y-54634285D02*
X39275295Y-54586666D01*
X39275295Y-54586666D02*
X39418152Y-54586666D01*
X39418152Y-54586666D02*
X39513390Y-54634285D01*
X39513390Y-54634285D02*
X39561009Y-54681904D01*
X39561009Y-54681904D02*
X39608628Y-54777142D01*
X39608628Y-54777142D02*
X39608628Y-55158094D01*
X39084819Y-54253332D02*
X39084819Y-53634285D01*
X39084819Y-53634285D02*
X39465771Y-53967618D01*
X39465771Y-53967618D02*
X39465771Y-53824761D01*
X39465771Y-53824761D02*
X39513390Y-53729523D01*
X39513390Y-53729523D02*
X39561009Y-53681904D01*
X39561009Y-53681904D02*
X39656247Y-53634285D01*
X39656247Y-53634285D02*
X39894342Y-53634285D01*
X39894342Y-53634285D02*
X39989580Y-53681904D01*
X39989580Y-53681904D02*
X40037200Y-53729523D01*
X40037200Y-53729523D02*
X40084819Y-53824761D01*
X40084819Y-53824761D02*
X40084819Y-54110475D01*
X40084819Y-54110475D02*
X40037200Y-54205713D01*
X40037200Y-54205713D02*
X39989580Y-54253332D01*
X46674761Y-25490057D02*
X46579523Y-25442438D01*
X46579523Y-25442438D02*
X46484285Y-25347200D01*
X46484285Y-25347200D02*
X46341428Y-25204342D01*
X46341428Y-25204342D02*
X46246190Y-25156723D01*
X46246190Y-25156723D02*
X46150952Y-25156723D01*
X46198571Y-25394819D02*
X46103333Y-25347200D01*
X46103333Y-25347200D02*
X46008095Y-25251961D01*
X46008095Y-25251961D02*
X45960476Y-25061485D01*
X45960476Y-25061485D02*
X45960476Y-24728152D01*
X45960476Y-24728152D02*
X46008095Y-24537676D01*
X46008095Y-24537676D02*
X46103333Y-24442438D01*
X46103333Y-24442438D02*
X46198571Y-24394819D01*
X46198571Y-24394819D02*
X46389047Y-24394819D01*
X46389047Y-24394819D02*
X46484285Y-24442438D01*
X46484285Y-24442438D02*
X46579523Y-24537676D01*
X46579523Y-24537676D02*
X46627142Y-24728152D01*
X46627142Y-24728152D02*
X46627142Y-25061485D01*
X46627142Y-25061485D02*
X46579523Y-25251961D01*
X46579523Y-25251961D02*
X46484285Y-25347200D01*
X46484285Y-25347200D02*
X46389047Y-25394819D01*
X46389047Y-25394819D02*
X46198571Y-25394819D01*
X47579523Y-25394819D02*
X47008095Y-25394819D01*
X47293809Y-25394819D02*
X47293809Y-24394819D01*
X47293809Y-24394819D02*
X47198571Y-24537676D01*
X47198571Y-24537676D02*
X47103333Y-24632914D01*
X47103333Y-24632914D02*
X47008095Y-24680533D01*
%TO.C,S1*%
D11*
X55010000Y-55260000D02*
X46190000Y-55260000D01*
X55010000Y-54950000D02*
X55010000Y-55260000D01*
X55010000Y-50740000D02*
X55010000Y-51050000D01*
X53100000Y-55960000D02*
X52600000Y-55460000D01*
X52600000Y-55460000D02*
X52100000Y-55960000D01*
X52100000Y-55960000D02*
X53100000Y-55960000D01*
X46190000Y-55260000D02*
X46190000Y-54950000D01*
X46190000Y-50740000D02*
X55010000Y-50740000D01*
X46190000Y-50740000D02*
X46190000Y-51050000D01*
%TO.C,C2*%
X50664888Y-35000000D02*
G75*
G02*
X45424888Y-35000000I-2620000J0D01*
G01*
X45424888Y-35000000D02*
G75*
G02*
X50664888Y-35000000I2620000J0D01*
G01*
X50644888Y-34717000D02*
X50644888Y-35283000D01*
X50604888Y-34483000D02*
X50604888Y-35517000D01*
X50564888Y-34323000D02*
X50564888Y-35677000D01*
X50524888Y-34195000D02*
X50524888Y-35805000D01*
X50484888Y-34086000D02*
X50484888Y-35914000D01*
X50444888Y-33989000D02*
X50444888Y-36011000D01*
X50404888Y-33902000D02*
X50404888Y-36098000D01*
X50364888Y-33823000D02*
X50364888Y-36177000D01*
X50324888Y-36040000D02*
X50324888Y-36251000D01*
X50324888Y-33749000D02*
X50324888Y-33960000D01*
X50284888Y-36040000D02*
X50284888Y-36319000D01*
X50284888Y-33681000D02*
X50284888Y-33960000D01*
X50244888Y-36040000D02*
X50244888Y-36383000D01*
X50244888Y-33617000D02*
X50244888Y-33960000D01*
X50204888Y-36040000D02*
X50204888Y-36443000D01*
X50204888Y-33557000D02*
X50204888Y-33960000D01*
X50164888Y-36040000D02*
X50164888Y-36499000D01*
X50164888Y-33501000D02*
X50164888Y-33960000D01*
X50124888Y-36040000D02*
X50124888Y-36553000D01*
X50124888Y-33447000D02*
X50124888Y-33960000D01*
X50084888Y-36040000D02*
X50084888Y-36604000D01*
X50084888Y-33396000D02*
X50084888Y-33960000D01*
X50044888Y-36040000D02*
X50044888Y-36652000D01*
X50044888Y-33348000D02*
X50044888Y-33960000D01*
X50004888Y-36040000D02*
X50004888Y-36699000D01*
X50004888Y-33301000D02*
X50004888Y-33960000D01*
X49964888Y-36040000D02*
X49964888Y-36743000D01*
X49964888Y-33257000D02*
X49964888Y-33960000D01*
X49924888Y-36040000D02*
X49924888Y-36785000D01*
X49924888Y-33215000D02*
X49924888Y-33960000D01*
X49884888Y-36040000D02*
X49884888Y-36825000D01*
X49884888Y-33175000D02*
X49884888Y-33960000D01*
X49844888Y-36040000D02*
X49844888Y-36864000D01*
X49844888Y-33136000D02*
X49844888Y-33960000D01*
X49804888Y-36040000D02*
X49804888Y-36901000D01*
X49804888Y-33099000D02*
X49804888Y-33960000D01*
X49764888Y-36040000D02*
X49764888Y-36936000D01*
X49764888Y-33064000D02*
X49764888Y-33960000D01*
X49724888Y-36040000D02*
X49724888Y-36970000D01*
X49724888Y-33030000D02*
X49724888Y-33960000D01*
X49684888Y-36040000D02*
X49684888Y-37003000D01*
X49684888Y-32997000D02*
X49684888Y-33960000D01*
X49644888Y-36040000D02*
X49644888Y-37035000D01*
X49644888Y-32965000D02*
X49644888Y-33960000D01*
X49604888Y-36040000D02*
X49604888Y-37065000D01*
X49604888Y-32935000D02*
X49604888Y-33960000D01*
X49564888Y-36040000D02*
X49564888Y-37094000D01*
X49564888Y-32906000D02*
X49564888Y-33960000D01*
X49524888Y-36040000D02*
X49524888Y-37122000D01*
X49524888Y-32878000D02*
X49524888Y-33960000D01*
X49484888Y-36040000D02*
X49484888Y-37149000D01*
X49484888Y-32851000D02*
X49484888Y-33960000D01*
X49444888Y-36040000D02*
X49444888Y-37175000D01*
X49444888Y-32825000D02*
X49444888Y-33960000D01*
X49404888Y-36040000D02*
X49404888Y-37199000D01*
X49404888Y-32801000D02*
X49404888Y-33960000D01*
X49364888Y-36040000D02*
X49364888Y-37223000D01*
X49364888Y-32777000D02*
X49364888Y-33960000D01*
X49324888Y-36040000D02*
X49324888Y-37246000D01*
X49324888Y-32754000D02*
X49324888Y-33960000D01*
X49284888Y-36040000D02*
X49284888Y-37268000D01*
X49284888Y-32732000D02*
X49284888Y-33960000D01*
X49244888Y-36040000D02*
X49244888Y-37289000D01*
X49244888Y-32711000D02*
X49244888Y-33960000D01*
X49204888Y-36040000D02*
X49204888Y-37309000D01*
X49204888Y-32691000D02*
X49204888Y-33960000D01*
X49164888Y-36040000D02*
X49164888Y-37329000D01*
X49164888Y-32671000D02*
X49164888Y-33960000D01*
X49124888Y-36040000D02*
X49124888Y-37347000D01*
X49124888Y-32653000D02*
X49124888Y-33960000D01*
X49084888Y-36040000D02*
X49084888Y-37365000D01*
X49084888Y-32635000D02*
X49084888Y-33960000D01*
X49044888Y-36040000D02*
X49044888Y-37382000D01*
X49044888Y-32618000D02*
X49044888Y-33960000D01*
X49004888Y-36040000D02*
X49004888Y-37398000D01*
X49004888Y-32602000D02*
X49004888Y-33960000D01*
X48964888Y-36040000D02*
X48964888Y-37413000D01*
X48964888Y-32587000D02*
X48964888Y-33960000D01*
X48924888Y-36040000D02*
X48924888Y-37428000D01*
X48924888Y-32572000D02*
X48924888Y-33960000D01*
X48884888Y-36040000D02*
X48884888Y-37442000D01*
X48884888Y-32558000D02*
X48884888Y-33960000D01*
X48844888Y-36040000D02*
X48844888Y-37455000D01*
X48844888Y-32545000D02*
X48844888Y-33960000D01*
X48804888Y-36040000D02*
X48804888Y-37467000D01*
X48804888Y-32533000D02*
X48804888Y-33960000D01*
X48764888Y-36040000D02*
X48764888Y-37479000D01*
X48764888Y-32521000D02*
X48764888Y-33960000D01*
X48724888Y-36040000D02*
X48724888Y-37490000D01*
X48724888Y-32510000D02*
X48724888Y-33960000D01*
X48684888Y-36040000D02*
X48684888Y-37501000D01*
X48684888Y-32499000D02*
X48684888Y-33960000D01*
X48644888Y-36040000D02*
X48644888Y-37510000D01*
X48644888Y-32490000D02*
X48644888Y-33960000D01*
X48604888Y-36040000D02*
X48604888Y-37519000D01*
X48604888Y-32481000D02*
X48604888Y-33960000D01*
X48564888Y-36040000D02*
X48564888Y-37528000D01*
X48564888Y-32472000D02*
X48564888Y-33960000D01*
X48524888Y-36040000D02*
X48524888Y-37536000D01*
X48524888Y-32464000D02*
X48524888Y-33960000D01*
X48484888Y-36040000D02*
X48484888Y-37543000D01*
X48484888Y-32457000D02*
X48484888Y-33960000D01*
X48444888Y-36040000D02*
X48444888Y-37549000D01*
X48444888Y-32451000D02*
X48444888Y-33960000D01*
X48404888Y-36040000D02*
X48404888Y-37555000D01*
X48404888Y-32445000D02*
X48404888Y-33960000D01*
X48364888Y-36040000D02*
X48364888Y-37560000D01*
X48364888Y-32440000D02*
X48364888Y-33960000D01*
X48324888Y-36040000D02*
X48324888Y-37565000D01*
X48324888Y-32435000D02*
X48324888Y-33960000D01*
X48284888Y-36040000D02*
X48284888Y-37569000D01*
X48284888Y-32431000D02*
X48284888Y-33960000D01*
X48244888Y-32428000D02*
X48244888Y-37572000D01*
X48204888Y-32425000D02*
X48204888Y-37575000D01*
X48164888Y-32423000D02*
X48164888Y-37577000D01*
X48124888Y-32421000D02*
X48124888Y-37579000D01*
X48084888Y-32420000D02*
X48084888Y-37580000D01*
X48044888Y-32420000D02*
X48044888Y-37580000D01*
X45490113Y-33275000D02*
X45490113Y-33775000D01*
X45240113Y-33525000D02*
X45740113Y-33525000D01*
%TO.C,D1*%
X56495000Y-29000000D02*
G75*
G02*
X51495000Y-29000000I-2500000J0D01*
G01*
X51495000Y-29000000D02*
G75*
G02*
X56495000Y-29000000I2500000J0D01*
G01*
X56985000Y-29000000D02*
G75*
G02*
X51435000Y-30544830I-2990000J0D01*
G01*
X51435000Y-27455170D02*
G75*
G02*
X56985000Y-29000000I2560000J-1544830D01*
G01*
X51435000Y-27455000D02*
X51435000Y-30545000D01*
%TO.C,D2*%
X74000000Y-31500000D02*
G75*
G02*
X69000000Y-31500000I-2500000J0D01*
G01*
X69000000Y-31500000D02*
G75*
G02*
X74000000Y-31500000I2500000J0D01*
G01*
X74490000Y-31500000D02*
G75*
G02*
X68940000Y-33044830I-2990000J0D01*
G01*
X68940000Y-29955170D02*
G75*
G02*
X74490000Y-31500000I2560000J-1544830D01*
G01*
X68940000Y-29955000D02*
X68940000Y-33045000D01*
%TO.C,R7*%
X58130000Y-30730000D02*
X60870000Y-30730000D01*
X60870000Y-37270000D01*
X58130000Y-37270000D01*
X58130000Y-30730000D01*
X59500000Y-29960000D02*
X59500000Y-30730000D01*
X59500000Y-38040000D02*
X59500000Y-37270000D01*
%TO.C,R6*%
X64130000Y-30730000D02*
X66870000Y-30730000D01*
X66870000Y-37270000D01*
X64130000Y-37270000D01*
X64130000Y-30730000D01*
X65500000Y-38040000D02*
X65500000Y-37270000D01*
X65500000Y-29960000D02*
X65500000Y-30730000D01*
%TO.C,R1*%
X66540000Y-43000000D02*
X65770000Y-43000000D01*
X58460000Y-43000000D02*
X59230000Y-43000000D01*
X59230000Y-41630000D02*
X65770000Y-41630000D01*
X65770000Y-44370000D01*
X59230000Y-44370000D01*
X59230000Y-41630000D01*
%TO.C,R2*%
X36500000Y-43460000D02*
X36500000Y-44230000D01*
X36500000Y-51540000D02*
X36500000Y-50770000D01*
X35130000Y-44230000D02*
X37870000Y-44230000D01*
X37870000Y-50770000D01*
X35130000Y-50770000D01*
X35130000Y-44230000D01*
%TO.C,BT1*%
X50420000Y-57620000D02*
X50420000Y-59000000D01*
X49040000Y-57620000D02*
X50420000Y-57620000D01*
X47770000Y-57620000D02*
X45120000Y-57620000D01*
X47770000Y-57620000D02*
X47770000Y-60380000D01*
X45120000Y-57620000D02*
X45120000Y-60380000D01*
X47770000Y-60380000D02*
X45120000Y-60380000D01*
%TO.C,C1*%
X38945225Y-42525000D02*
X39445225Y-42525000D01*
X39195225Y-42275000D02*
X39195225Y-42775000D01*
X41750000Y-41420000D02*
X41750000Y-46580000D01*
X41790000Y-41420000D02*
X41790000Y-46580000D01*
X41830000Y-41421000D02*
X41830000Y-46579000D01*
X41870000Y-41423000D02*
X41870000Y-46577000D01*
X41910000Y-41425000D02*
X41910000Y-46575000D01*
X41950000Y-41428000D02*
X41950000Y-46572000D01*
X41990000Y-41431000D02*
X41990000Y-42960000D01*
X41990000Y-45040000D02*
X41990000Y-46569000D01*
X42030000Y-41435000D02*
X42030000Y-42960000D01*
X42030000Y-45040000D02*
X42030000Y-46565000D01*
X42070000Y-41440000D02*
X42070000Y-42960000D01*
X42070000Y-45040000D02*
X42070000Y-46560000D01*
X42110000Y-41445000D02*
X42110000Y-42960000D01*
X42110000Y-45040000D02*
X42110000Y-46555000D01*
X42150000Y-41451000D02*
X42150000Y-42960000D01*
X42150000Y-45040000D02*
X42150000Y-46549000D01*
X42190000Y-41457000D02*
X42190000Y-42960000D01*
X42190000Y-45040000D02*
X42190000Y-46543000D01*
X42230000Y-41464000D02*
X42230000Y-42960000D01*
X42230000Y-45040000D02*
X42230000Y-46536000D01*
X42270000Y-41472000D02*
X42270000Y-42960000D01*
X42270000Y-45040000D02*
X42270000Y-46528000D01*
X42310000Y-41481000D02*
X42310000Y-42960000D01*
X42310000Y-45040000D02*
X42310000Y-46519000D01*
X42350000Y-41490000D02*
X42350000Y-42960000D01*
X42350000Y-45040000D02*
X42350000Y-46510000D01*
X42390000Y-41499000D02*
X42390000Y-42960000D01*
X42390000Y-45040000D02*
X42390000Y-46501000D01*
X42430000Y-41510000D02*
X42430000Y-42960000D01*
X42430000Y-45040000D02*
X42430000Y-46490000D01*
X42470000Y-41521000D02*
X42470000Y-42960000D01*
X42470000Y-45040000D02*
X42470000Y-46479000D01*
X42510000Y-41533000D02*
X42510000Y-42960000D01*
X42510000Y-45040000D02*
X42510000Y-46467000D01*
X42550000Y-41545000D02*
X42550000Y-42960000D01*
X42550000Y-45040000D02*
X42550000Y-46455000D01*
X42590000Y-41558000D02*
X42590000Y-42960000D01*
X42590000Y-45040000D02*
X42590000Y-46442000D01*
X42630000Y-41572000D02*
X42630000Y-42960000D01*
X42630000Y-45040000D02*
X42630000Y-46428000D01*
X42670000Y-41587000D02*
X42670000Y-42960000D01*
X42670000Y-45040000D02*
X42670000Y-46413000D01*
X42710000Y-41602000D02*
X42710000Y-42960000D01*
X42710000Y-45040000D02*
X42710000Y-46398000D01*
X42750000Y-41618000D02*
X42750000Y-42960000D01*
X42750000Y-45040000D02*
X42750000Y-46382000D01*
X42790000Y-41635000D02*
X42790000Y-42960000D01*
X42790000Y-45040000D02*
X42790000Y-46365000D01*
X42830000Y-41653000D02*
X42830000Y-42960000D01*
X42830000Y-45040000D02*
X42830000Y-46347000D01*
X42870000Y-41671000D02*
X42870000Y-42960000D01*
X42870000Y-45040000D02*
X42870000Y-46329000D01*
X42910000Y-41691000D02*
X42910000Y-42960000D01*
X42910000Y-45040000D02*
X42910000Y-46309000D01*
X42950000Y-41711000D02*
X42950000Y-42960000D01*
X42950000Y-45040000D02*
X42950000Y-46289000D01*
X42990000Y-41732000D02*
X42990000Y-42960000D01*
X42990000Y-45040000D02*
X42990000Y-46268000D01*
X43030000Y-41754000D02*
X43030000Y-42960000D01*
X43030000Y-45040000D02*
X43030000Y-46246000D01*
X43070000Y-41777000D02*
X43070000Y-42960000D01*
X43070000Y-45040000D02*
X43070000Y-46223000D01*
X43110000Y-41801000D02*
X43110000Y-42960000D01*
X43110000Y-45040000D02*
X43110000Y-46199000D01*
X43150000Y-41825000D02*
X43150000Y-42960000D01*
X43150000Y-45040000D02*
X43150000Y-46175000D01*
X43190000Y-41851000D02*
X43190000Y-42960000D01*
X43190000Y-45040000D02*
X43190000Y-46149000D01*
X43230000Y-41878000D02*
X43230000Y-42960000D01*
X43230000Y-45040000D02*
X43230000Y-46122000D01*
X43270000Y-41906000D02*
X43270000Y-42960000D01*
X43270000Y-45040000D02*
X43270000Y-46094000D01*
X43310000Y-41935000D02*
X43310000Y-42960000D01*
X43310000Y-45040000D02*
X43310000Y-46065000D01*
X43350000Y-41965000D02*
X43350000Y-42960000D01*
X43350000Y-45040000D02*
X43350000Y-46035000D01*
X43390000Y-41997000D02*
X43390000Y-42960000D01*
X43390000Y-45040000D02*
X43390000Y-46003000D01*
X43430000Y-42030000D02*
X43430000Y-42960000D01*
X43430000Y-45040000D02*
X43430000Y-45970000D01*
X43470000Y-42064000D02*
X43470000Y-42960000D01*
X43470000Y-45040000D02*
X43470000Y-45936000D01*
X43510000Y-42099000D02*
X43510000Y-42960000D01*
X43510000Y-45040000D02*
X43510000Y-45901000D01*
X43550000Y-42136000D02*
X43550000Y-42960000D01*
X43550000Y-45040000D02*
X43550000Y-45864000D01*
X43590000Y-42175000D02*
X43590000Y-42960000D01*
X43590000Y-45040000D02*
X43590000Y-45825000D01*
X43630000Y-42215000D02*
X43630000Y-42960000D01*
X43630000Y-45040000D02*
X43630000Y-45785000D01*
X43670000Y-42257000D02*
X43670000Y-42960000D01*
X43670000Y-45040000D02*
X43670000Y-45743000D01*
X43710000Y-42301000D02*
X43710000Y-42960000D01*
X43710000Y-45040000D02*
X43710000Y-45699000D01*
X43750000Y-42348000D02*
X43750000Y-42960000D01*
X43750000Y-45040000D02*
X43750000Y-45652000D01*
X43790000Y-42396000D02*
X43790000Y-42960000D01*
X43790000Y-45040000D02*
X43790000Y-45604000D01*
X43830000Y-42447000D02*
X43830000Y-42960000D01*
X43830000Y-45040000D02*
X43830000Y-45553000D01*
X43870000Y-42501000D02*
X43870000Y-42960000D01*
X43870000Y-45040000D02*
X43870000Y-45499000D01*
X43910000Y-42557000D02*
X43910000Y-42960000D01*
X43910000Y-45040000D02*
X43910000Y-45443000D01*
X43950000Y-42617000D02*
X43950000Y-42960000D01*
X43950000Y-45040000D02*
X43950000Y-45383000D01*
X43990000Y-42681000D02*
X43990000Y-42960000D01*
X43990000Y-45040000D02*
X43990000Y-45319000D01*
X44030000Y-42749000D02*
X44030000Y-42960000D01*
X44030000Y-45040000D02*
X44030000Y-45251000D01*
X44070000Y-42823000D02*
X44070000Y-45177000D01*
X44110000Y-42902000D02*
X44110000Y-45098000D01*
X44150000Y-42989000D02*
X44150000Y-45011000D01*
X44190000Y-43086000D02*
X44190000Y-44914000D01*
X44230000Y-43195000D02*
X44230000Y-44805000D01*
X44270000Y-43323000D02*
X44270000Y-44677000D01*
X44310000Y-43483000D02*
X44310000Y-44517000D01*
X44350000Y-43717000D02*
X44350000Y-44283000D01*
X44370000Y-44000000D02*
G75*
G02*
X39130000Y-44000000I-2620000J0D01*
G01*
X39130000Y-44000000D02*
G75*
G02*
X44370000Y-44000000I2620000J0D01*
G01*
%TO.C,R4*%
X32960000Y-37500000D02*
X33730000Y-37500000D01*
X41040000Y-37500000D02*
X40270000Y-37500000D01*
X33730000Y-36130000D02*
X40270000Y-36130000D01*
X40270000Y-38870000D01*
X33730000Y-38870000D01*
X33730000Y-36130000D01*
%TO.C,R5*%
X32960000Y-32500000D02*
X33730000Y-32500000D01*
X41040000Y-32500000D02*
X40270000Y-32500000D01*
X33730000Y-31130000D02*
X40270000Y-31130000D01*
X40270000Y-33870000D01*
X33730000Y-33870000D01*
X33730000Y-31130000D01*
%TO.C,U1*%
X47350000Y-39360000D02*
X47350000Y-49640000D01*
X47350000Y-49640000D02*
X52650000Y-49640000D01*
X49000000Y-39360000D02*
X47350000Y-39360000D01*
X52650000Y-39360000D02*
X51000000Y-39360000D01*
X52650000Y-49640000D02*
X52650000Y-39360000D01*
X51000000Y-39360000D02*
G75*
G02*
X49000000Y-39360000I-1000000J0D01*
G01*
%TO.C,R3*%
X42000000Y-58460000D02*
X42000000Y-57690000D01*
X42000000Y-50380000D02*
X42000000Y-51150000D01*
X40630000Y-51150000D02*
X43370000Y-51150000D01*
X43370000Y-57690000D01*
X40630000Y-57690000D01*
X40630000Y-51150000D01*
%TO.C,Q1*%
X44970000Y-30350000D02*
X48570000Y-30350000D01*
X44931522Y-30338478D02*
G75*
G02*
X46770000Y-25899999I1838478J1838478D01*
G01*
X46770000Y-25900000D02*
G75*
G02*
X48608478Y-30338478I0J-2600000D01*
G01*
%TD*%
M02*
