%TF.GenerationSoftware,KiCad,Pcbnew,10.0.0*%
%TF.CreationDate,2026-04-11T00:49:53+10:00*%
%TF.ProjectId,555_Badge,3535355f-4261-4646-9765-2e6b69636164,rev?*%
%TF.SameCoordinates,Original*%
%TF.FileFunction,Copper,L2,Bot*%
%TF.FilePolarity,Positive*%
%FSLAX46Y46*%
G04 Gerber Fmt 4.6, Leading zero omitted, Abs format (unit mm)*
G04 Created by KiCad (PCBNEW 10.0.0) date 2026-04-11 00:49:53*
%MOMM*%
%LPD*%
G01*
G04 APERTURE LIST*
G04 Aperture macros list*
%AMRoundRect*
0 Rectangle with rounded corners*
0 $1 Rounding radius*
0 $2 $3 $4 $5 $6 $7 $8 $9 X,Y pos of 4 corners*
0 Add a 4 corners polygon primitive as box body*
4,1,4,$2,$3,$4,$5,$6,$7,$8,$9,$2,$3,0*
0 Add four circle primitives for the rounded corners*
1,1,$1+$1,$2,$3*
1,1,$1+$1,$4,$5*
1,1,$1+$1,$6,$7*
1,1,$1+$1,$8,$9*
0 Add four rect primitives between the rounded corners*
20,1,$1+$1,$2,$3,$4,$5,0*
20,1,$1+$1,$4,$5,$6,$7,0*
20,1,$1+$1,$6,$7,$8,$9,0*
20,1,$1+$1,$8,$9,$2,$3,0*%
G04 Aperture macros list end*
%TA.AperFunction,ComponentPad*%
%ADD10O,2.200000X3.500000*%
%TD*%
%TA.AperFunction,ComponentPad*%
%ADD11R,1.500000X2.500000*%
%TD*%
%TA.AperFunction,ComponentPad*%
%ADD12O,1.500000X2.500000*%
%TD*%
%TA.AperFunction,ComponentPad*%
%ADD13C,1.600000*%
%TD*%
%TA.AperFunction,ComponentPad*%
%ADD14RoundRect,0.250000X-0.550000X-0.550000X0.550000X-0.550000X0.550000X0.550000X-0.550000X0.550000X0*%
%TD*%
%TA.AperFunction,ComponentPad*%
%ADD15C,1.800000*%
%TD*%
%TA.AperFunction,ComponentPad*%
%ADD16R,1.800000X1.800000*%
%TD*%
%TA.AperFunction,ComponentPad*%
%ADD17R,1.700000X1.700000*%
%TD*%
%TA.AperFunction,ComponentPad*%
%ADD18C,1.700000*%
%TD*%
%TA.AperFunction,ComponentPad*%
%ADD19R,1.050000X1.500000*%
%TD*%
%TA.AperFunction,ComponentPad*%
%ADD20O,1.050000X1.500000*%
%TD*%
G04 APERTURE END LIST*
D10*
%TO.P,S1,*%
%TO.N,*%
X54700000Y-53000000D03*
X46500000Y-53000000D03*
D11*
%TO.P,S1,1,~_1*%
%TO.N,unconnected-(S1-~-Pad1)*%
X52600000Y-53000000D03*
D12*
%TO.P,S1,2,~_2*%
%TO.N,VCC*%
X50600000Y-53000000D03*
%TO.P,S1,3,~_3*%
%TO.N,Net-(BT1-+)*%
X48600000Y-53000000D03*
%TD*%
D13*
%TO.P,C2,2*%
%TO.N,GND*%
X49294888Y-35000000D03*
D14*
%TO.P,C2,1*%
%TO.N,Net-(C2-Pad1)*%
X46794888Y-35000000D03*
%TD*%
D15*
%TO.P,D1,2,A_2*%
%TO.N,Net-(D1-A)*%
X55265000Y-29000000D03*
D16*
%TO.P,D1,1,K_1*%
%TO.N,Net-(D1-K)*%
X52725000Y-29000000D03*
%TD*%
D15*
%TO.P,D2,2,A_2*%
%TO.N,Net-(D2-A)*%
X72770000Y-31500000D03*
D16*
%TO.P,D2,1,K_1*%
%TO.N,unconnected-(D2-K-Pad1)*%
X70230000Y-31500000D03*
%TD*%
D13*
%TO.P,R7,2*%
%TO.N,Net-(D1-A)*%
X59500000Y-28920000D03*
%TO.P,R7,1*%
%TO.N,VCC*%
X59500000Y-39080000D03*
%TD*%
%TO.P,R6,2*%
%TO.N,VCC*%
X65500000Y-39080000D03*
%TO.P,R6,1*%
%TO.N,Net-(D2-A)*%
X65500000Y-28920000D03*
%TD*%
%TO.P,R1,1*%
%TO.N,VCC*%
X67580000Y-43000000D03*
%TO.P,R1,2*%
%TO.N,Net-(U1-DIS)*%
X57420000Y-43000000D03*
%TD*%
%TO.P,R2,1*%
%TO.N,Net-(U1-DIS)*%
X36500000Y-42420000D03*
%TO.P,R2,2*%
%TO.N,Net-(U1-THRESH)*%
X36500000Y-52580000D03*
%TD*%
D17*
%TO.P,BT1,1,+_1*%
%TO.N,Net-(BT1-+)*%
X49040000Y-59000000D03*
D18*
%TO.P,BT1,2,-_2*%
%TO.N,GND*%
X46500000Y-59000000D03*
%TD*%
D14*
%TO.P,C1,1*%
%TO.N,Net-(U1-THRESH)*%
X40500000Y-44000000D03*
D13*
%TO.P,C1,2*%
%TO.N,GND*%
X43000000Y-44000000D03*
%TD*%
%TO.P,R4,1*%
%TO.N,Net-(C2-Pad1)*%
X31920000Y-37500000D03*
%TO.P,R4,2*%
%TO.N,GND*%
X42080000Y-37500000D03*
%TD*%
%TO.P,R5,1*%
%TO.N,Net-(C2-Pad1)*%
X31920000Y-32500000D03*
%TO.P,R5,2*%
%TO.N,Net-(Q1-B)*%
X42080000Y-32500000D03*
%TD*%
D14*
%TO.P,U1,1,GND_1*%
%TO.N,GND*%
X46190000Y-40690000D03*
D13*
%TO.P,U1,2,~{TRIG}_2*%
%TO.N,Net-(U1-THRESH)*%
X46190000Y-43230000D03*
%TO.P,U1,3,OUT_3*%
%TO.N,Net-(U1-OUT)*%
X46190000Y-45770000D03*
%TO.P,U1,4,~{RST}_4*%
%TO.N,VCC*%
X46190000Y-48310000D03*
%TO.P,U1,5,CV_5*%
%TO.N,unconnected-(U1-CV-Pad5)*%
X53810000Y-48310000D03*
%TO.P,U1,6,THRESH_6*%
%TO.N,Net-(U1-THRESH)*%
X53810000Y-45770000D03*
%TO.P,U1,7,DIS_7*%
%TO.N,Net-(U1-DIS)*%
X53810000Y-43230000D03*
%TO.P,U1,8,VDD_8*%
%TO.N,VCC*%
X53810000Y-40690000D03*
%TD*%
%TO.P,R3,1*%
%TO.N,Net-(U1-OUT)*%
X42000000Y-59500000D03*
%TO.P,R3,2*%
%TO.N,Net-(C2-Pad1)*%
X42000000Y-49340000D03*
%TD*%
D19*
%TO.P,Q1,1,E_1*%
%TO.N,GND*%
X45500000Y-28500000D03*
D20*
%TO.P,Q1,2,B_2*%
%TO.N,Net-(Q1-B)*%
X46770000Y-28500000D03*
%TO.P,Q1,3,C_3*%
%TO.N,Net-(D1-K)*%
X48040000Y-28500000D03*
%TD*%
M02*
